<?xml version="1.0" encoding="UTF-8"?>
<svg width="48px" height="48px" viewBox="0 0 48 48" version="1.1" xmlns="http://www.w3.org/2000/svg">
    <g stroke="none" stroke-width="1" fill="none" fill-rule="evenodd">
        <g>
            <!-- Document Background -->
            <path d="M10,2 L28,2 L38,12 L38,44 C38,45.1045695 37.1045695,46 36,46 L10,46 C8.8954305,46 8,45.1045695 8,44 L8,4 C8,2.8954305 8.8954305,2 10,2 Z" fill="#F3F4F6"/>
            <!-- Folded Corner -->
            <path d="M28,2 L38,12 L30,12 C28.8954305,12 28,11.1045695 28,10 L28,2 Z" fill="#D1D5DB"/>
            <!-- Lines -->
            <rect x="14" y="20" width="20" height="2" rx="1" fill="#9CA3AF"/>
            <rect x="14" y="26" width="16" height="2" rx="1" fill="#9CA3AF"/>
            <rect x="14" y="32" width="18" height="2" rx="1" fill="#9CA3AF"/>
        </g>
    </g>
</svg>
